<svg width="16" height="16" viewBox="0 0 16 16" fill="none" xmlns="http://www.w3.org/2000/svg">
<path d="M2 15.125C1.68189 15.125 1.42594 15.0188 1.20355 14.7964C0.981164 14.5741 0.875 14.3181 0.875 14C0.875 13.6819 0.981164 13.4259 1.20355 13.2036C1.42594 12.9812 1.68189 12.875 2 12.875C2.31811 12.875 2.57406 12.9812 2.79645 13.2036C3.01884 13.4259 3.125 13.6819 3.125 14C3.125 14.3181 3.01884 14.5741 2.79645 14.7964C2.57406 15.0188 2.31811 15.125 2 15.125ZM8 15.125C7.68189 15.125 7.42594 15.0188 7.20355 14.7964C6.98116 14.5741 6.875 14.3181 6.875 14C6.875 13.6819 6.98116 13.4259 7.20355 13.2036C7.42594 12.9812 7.68189 12.875 8 12.875C8.31811 12.875 8.57406 12.9812 8.79645 13.2036C9.01884 13.4259 9.125 13.6819 9.125 14C9.125 14.3181 9.01884 14.5741 8.79645 14.7964C8.57406 15.0188 8.31811 15.125 8 15.125ZM14 15.125C13.6819 15.125 13.4259 15.0188 13.2036 14.7964C12.9812 14.5741 12.875 14.3181 12.875 14C12.875 13.6819 12.9812 13.4259 13.2036 13.2036C13.4259 12.9812 13.6819 12.875 14 12.875C14.3181 12.875 14.5741 12.9812 14.7964 13.2036C15.0188 13.4259 15.125 13.6819 15.125 14C15.125 14.3181 15.0188 14.5741 14.7964 14.7964C14.5741 15.0188 14.3181 15.125 14 15.125ZM2 9.125C1.68189 9.125 1.42594 9.01884 1.20355 8.79645C0.981164 8.57406 0.875 8.31811 0.875 8C0.875 7.68189 0.981164 7.42594 1.20355 7.20355C1.42594 6.98116 1.68189 6.875 2 6.875C2.31811 6.875 2.57406 6.98116 2.79645 7.20355C3.01884 7.42594 3.125 7.68189 3.125 8C3.125 8.31811 3.01884 8.57406 2.79645 8.79645C2.57406 9.01884 2.31811 9.125 2 9.125ZM8 9.125C7.68189 9.125 7.42594 9.01884 7.20355 8.79645C6.98116 8.57406 6.875 8.31811 6.875 8C6.875 7.68189 6.98116 7.42594 7.20355 7.20355C7.42594 6.98116 7.68189 6.875 8 6.875C8.31811 6.875 8.57406 6.98116 8.79645 7.20355C9.01884 7.42594 9.125 7.68189 9.125 8C9.125 8.31811 9.01884 8.57406 8.79645 8.79645C8.57406 9.01884 8.31811 9.125 8 9.125ZM14 9.125C13.6819 9.125 13.4259 9.01884 13.2036 8.79645C12.9812 8.57406 12.875 8.31811 12.875 8C12.875 7.68189 12.9812 7.42594 13.2036 7.20355C13.4259 6.98116 13.6819 6.875 14 6.875C14.3181 6.875 14.5741 6.98116 14.7964 7.20355C15.0188 7.42594 15.125 7.68189 15.125 8C15.125 8.31811 15.0188 8.57406 14.7964 8.79645C14.5741 9.01884 14.3181 9.125 14 9.125ZM2 3.125C1.68189 3.125 1.42594 3.01884 1.20355 2.79645C0.981164 2.57406 0.875 2.31811 0.875 2C0.875 1.68189 0.981164 1.42594 1.20355 1.20355C1.42594 0.981164 1.68189 0.875 2 0.875C2.31811 0.875 2.57406 0.981164 2.79645 1.20355C3.01884 1.42594 3.125 1.68189 3.125 2C3.125 2.31811 3.01884 2.57406 2.79645 2.79645C2.57406 3.01884 2.31811 3.125 2 3.125ZM8 3.125C7.68189 3.125 7.42594 3.01884 7.20355 2.79645C6.98116 2.57406 6.875 2.31811 6.875 2C6.875 1.68189 6.98116 1.42594 7.20355 1.20355C7.42594 0.981164 7.68189 0.875 8 0.875C8.31811 0.875 8.57406 0.981164 8.79645 1.20355C9.01884 1.42594 9.125 1.68189 9.125 2C9.125 2.31811 9.01884 2.57406 8.79645 2.79645C8.57406 3.01884 8.31811 3.125 8 3.125ZM14 3.125C13.6819 3.125 13.4259 3.01884 13.2036 2.79645C12.9812 2.57406 12.875 2.31811 12.875 2C12.875 1.68189 12.9812 1.42594 13.2036 1.20355C13.4259 0.981164 13.6819 0.875 14 0.875C14.3181 0.875 14.5741 0.981164 14.7964 1.20355C15.0188 1.42594 15.125 1.68189 15.125 2C15.125 2.31811 15.0188 2.57406 14.7964 2.79645C14.5741 3.01884 14.3181 3.125 14 3.125Z" fill="#61A7A5" stroke="#61A7A5"/>
</svg>
