<svg width="18" height="12" viewBox="0 0 18 12" fill="none" xmlns="http://www.w3.org/2000/svg">
<mask id="path-1-inside-1_419_4041" fill="white">
<path d="M17.05 5H0.95C0.42533 5 0 5.42533 0 5.95V6.05C0 6.57467 0.42533 7 0.95 7H17.05C17.5747 7 18 6.57467 18 6.05V5.95C18 5.42533 17.5747 5 17.05 5Z"/>
</mask>
<path d="M17.05 5H0.95C0.42533 5 0 5.42533 0 5.95V6.05C0 6.57467 0.42533 7 0.95 7H17.05C17.5747 7 18 6.57467 18 6.05V5.95C18 5.42533 17.5747 5 17.05 5Z" fill="#61A7A5"/>
<path d="M0.95 9.3136H17.05V0.686399H0.95V9.3136ZM17.05 9.3136C15.1923 9.3136 13.6864 7.80767 13.6864 5.95H22.3136C22.3136 3.04299 19.957 0.686399 17.05 0.686399V9.3136ZM13.6864 5.95V6.05H22.3136V5.95H13.6864ZM13.6864 6.05C13.6864 4.19233 15.1923 2.6864 17.05 2.6864V11.3136C19.957 11.3136 22.3136 8.95701 22.3136 6.05H13.6864ZM17.05 2.6864H0.95V11.3136H17.05V2.6864ZM0.95 2.6864C2.80766 2.6864 4.3136 4.19233 4.3136 6.05H-4.3136C-4.3136 8.95701 -1.957 11.3136 0.95 11.3136V2.6864ZM4.3136 6.05V5.95H-4.3136V6.05H4.3136ZM4.3136 5.95C4.3136 7.80767 2.80766 9.3136 0.95 9.3136V0.686399C-1.957 0.686399 -4.3136 3.04299 -4.3136 5.95H4.3136Z" fill="#61A7A5" mask="url(#path-1-inside-1_419_4041)"/>
<mask id="path-3-inside-2_419_4041" fill="white">
<path d="M17.05 10H0.95C0.42533 10 0 10.4253 0 10.95V11.05C0 11.5747 0.42533 12 0.95 12H17.05C17.5747 12 18 11.5747 18 11.05V10.95C18 10.4253 17.5747 10 17.05 10Z"/>
</mask>
<path d="M17.05 10H0.95C0.42533 10 0 10.4253 0 10.95V11.05C0 11.5747 0.42533 12 0.95 12H17.05C17.5747 12 18 11.5747 18 11.05V10.95C18 10.4253 17.5747 10 17.05 10Z" fill="#61A7A5"/>
<path d="M0.95 14.3136H17.05V5.6864H0.95V14.3136ZM17.05 14.3136C15.1923 14.3136 13.6864 12.8077 13.6864 10.95H22.3136C22.3136 8.043 19.957 5.6864 17.05 5.6864V14.3136ZM13.6864 10.95V11.05H22.3136V10.95H13.6864ZM13.6864 11.05C13.6864 9.19234 15.1923 7.6864 17.05 7.6864V16.3136C19.957 16.3136 22.3136 13.957 22.3136 11.05H13.6864ZM17.05 7.6864H0.95V16.3136H17.05V7.6864ZM0.95 7.6864C2.80767 7.6864 4.3136 9.19234 4.3136 11.05H-4.3136C-4.3136 13.957 -1.95701 16.3136 0.95 16.3136V7.6864ZM4.3136 11.05V10.95H-4.3136V11.05H4.3136ZM4.3136 10.95C4.3136 12.8077 2.80767 14.3136 0.95 14.3136V5.6864C-1.95701 5.6864 -4.3136 8.043 -4.3136 10.95H4.3136Z" fill="#61A7A5" mask="url(#path-3-inside-2_419_4041)"/>
<mask id="path-5-inside-3_419_4041" fill="white">
<path d="M17.05 0H0.95C0.42533 0 0 0.425329 0 0.95V1.05C0 1.57467 0.42533 2 0.95 2H17.05C17.5747 2 18 1.57467 18 1.05V0.95C18 0.425329 17.5747 0 17.05 0Z"/>
</mask>
<path d="M17.05 0H0.95C0.42533 0 0 0.425329 0 0.95V1.05C0 1.57467 0.42533 2 0.95 2H17.05C17.5747 2 18 1.57467 18 1.05V0.95C18 0.425329 17.5747 0 17.05 0Z" fill="#61A7A5"/>
<path d="M0.95 4.3136H17.05V-4.3136H0.95V4.3136ZM17.05 4.3136C15.1923 4.3136 13.6864 2.80767 13.6864 0.95H22.3136C22.3136 -1.95701 19.957 -4.3136 17.05 -4.3136V4.3136ZM13.6864 0.95V1.05H22.3136V0.95H13.6864ZM13.6864 1.05C13.6864 -0.807668 15.1923 -2.3136 17.05 -2.3136V6.3136C19.957 6.3136 22.3136 3.95701 22.3136 1.05H13.6864ZM17.05 -2.3136H0.95V6.3136H17.05V-2.3136ZM0.95 -2.3136C2.80766 -2.3136 4.3136 -0.807667 4.3136 1.05H-4.3136C-4.3136 3.95701 -1.957 6.3136 0.95 6.3136V-2.3136ZM4.3136 1.05V0.95H-4.3136V1.05H4.3136ZM4.3136 0.95C4.3136 2.80767 2.80766 4.3136 0.95 4.3136V-4.3136C-1.957 -4.3136 -4.3136 -1.95701 -4.3136 0.95H4.3136Z" fill="#61A7A5" mask="url(#path-5-inside-3_419_4041)"/>
</svg>
