<svg width="20" height="21" viewBox="0 0 20 21" fill="none" xmlns="http://www.w3.org/2000/svg">
<path d="M2.3 20.5C1.8 20.5 1.375 20.325 1.025 19.975C0.675 19.625 0.5 19.2 0.5 18.7V7.3C0.5 6.86667 0.629333 6.479 0.888 6.137C1.146 5.79567 1.475 5.54167 1.875 5.375L12.775 0.95C12.9417 0.866666 13.1127 0.862333 13.288 0.937C13.4627 1.01233 13.5833 1.14167 13.65 1.325C13.7167 1.50833 13.7123 1.68333 13.637 1.85C13.5623 2.01667 13.4417 2.13333 13.275 2.2L5.175 5.5H17.7C18.2 5.5 18.625 5.675 18.975 6.025C19.325 6.375 19.5 6.8 19.5 7.3V18.7C19.5 19.2 19.325 19.625 18.975 19.975C18.625 20.325 18.2 20.5 17.7 20.5H2.3ZM2 11.775V18.7C2 18.7833 2.02933 18.8543 2.088 18.913C2.146 18.971 2.21667 19 2.3 19H17.7C17.7833 19 17.8543 18.971 17.913 18.913C17.971 18.8543 18 18.7833 18 18.7V11.775H2ZM2 10.275H14.25V9.1C14.25 8.88333 14.3207 8.704 14.462 8.562C14.604 8.42067 14.7833 8.35 15 8.35C15.2167 8.35 15.396 8.42067 15.538 8.562C15.6793 8.704 15.75 8.88333 15.75 9.1V10.275H18V7.3C18 7.21667 17.971 7.14567 17.913 7.087C17.8543 7.029 17.7833 7 17.7 7H2.3C2.21667 7 2.146 7.029 2.088 7.087C2.02933 7.14567 2 7.21667 2 7.3V10.275ZM5.925 17.7C6.55833 17.7 7.1 17.475 7.55 17.025C8 16.575 8.225 16.025 8.225 15.375C8.225 14.7417 8 14.2 7.55 13.75C7.1 13.3 6.55833 13.075 5.925 13.075C5.275 13.075 4.729 13.3 4.287 13.75C3.84567 14.2 3.625 14.7417 3.625 15.375C3.625 16.025 3.84567 16.575 4.287 17.025C4.729 17.475 5.275 17.7 5.925 17.7ZM2 11.775V19V18.7V11.775Z" fill="black"/>
</svg>
